<svg viewBox="0 0 126 18" fill="none" xmlns="http://www.w3.org/2000/svg"><path d="M5.947 17.23c-.31.48-.844.77-1.416.77H.281A.281.281 0 0 1 0 17.719V15.58c0-.155.126-.28.281-.28h6.4c.223 0 .358.246.236.433l-.97 1.496ZM23.625 17.719a.281.281 0 0 1-.281.281h-4.25c-.572 0-1.105-.29-1.417-.77l-.97-1.496a.281.281 0 0 1 .237-.434h6.4c.155 0 .281.126.281.281v2.138ZM8.011 14.047a.281.281 0 0 1-.236.128H.281A.281.281 0 0 1 0 13.894v-2.137c0-.156.126-.282.281-.282h8.88c.223 0 .358.247.236.434l-1.386 2.138ZM23.625 13.894a.281.281 0 0 1-.281.281h-7.495a.281.281 0 0 1-.235-.128l-1.386-2.138a.281.281 0 0 1 .236-.434h8.88c.155 0 .281.126.281.282v2.137ZM11.184 8.847c.06.093.06.213 0 .306l-.693 1.069a.28.28 0 0 1-.236.128H.281A.281.281 0 0 1 0 10.07V7.931c0-.155.126-.281.281-.281h9.974c.095 0 .184.048.236.128l.693 1.069ZM23.625 10.069a.281.281 0 0 1-.281.281H13.37a.281.281 0 0 1-.236-.128l-.693-1.069a.282.282 0 0 1 0-.306l.693-1.069a.281.281 0 0 1 .236-.128h9.974c.155 0 .281.126.281.281v2.138ZM9.397 6.09a.281.281 0 0 1-.236.435H.281A.281.281 0 0 1 0 6.244V4.106c0-.155.126-.281.281-.281h7.494c.096 0 .185.048.236.128l1.386 2.138ZM23.625 6.244a.281.281 0 0 1-.281.28h-8.88a.281.281 0 0 1-.236-.433l1.386-2.138a.281.281 0 0 1 .236-.128h7.494c.155 0 .281.126.281.281v2.138ZM4.531 0c.572 0 1.105.29 1.416.77l.97 1.496a.281.281 0 0 1-.236.434h-6.4A.281.281 0 0 1 0 2.419V.28C0 .126.126 0 .281 0h4.25ZM23.625 2.419a.281.281 0 0 1-.281.28h-6.4a.281.281 0 0 1-.236-.433l.97-1.496c.31-.48.844-.77 1.416-.77h4.25c.155 0 .281.126.281.281V2.42ZM36.279 14.906h-.792c-.168 0-.252-.084-.252-.252V3.584c0-.168.084-.252.252-.252h.738c.144 0 .24.048.288.144l4.968 8.73h.072V3.584c0-.168.084-.252.252-.252h.792c.168 0 .252.084.252.252v11.07c0 .168-.084.252-.252.252h-.666c-.132 0-.258-.078-.378-.234l-4.95-8.64h-.072v8.622c0 .168-.084.252-.252.252ZM46.918 3.584v11.07c0 .168-.084.252-.252.252h-.81c-.168 0-.252-.084-.252-.252V3.584c0-.168.084-.252.252-.252h.81c.168 0 .252.084.252.252ZM54.104 14.906H52.16c-.828 0-1.482-.234-1.962-.702-.468-.468-.702-1.122-.702-1.962V5.996c0-.84.234-1.494.702-1.962.48-.468 1.134-.702 1.962-.702h1.944c.828 0 1.476.24 1.944.72.468.468.702 1.116.702 1.944v.738c0 .18-.084.27-.252.27h-.81c-.168 0-.252-.09-.252-.27V6.05c0-1.044-.498-1.566-1.494-1.566h-1.638c-.996 0-1.494.522-1.494 1.566v6.138c0 1.044.498 1.566 1.494 1.566h1.638c.996 0 1.494-.522 1.494-1.566v-2.016c0-.12-.054-.18-.162-.18h-1.782c-.168 0-.252-.078-.252-.234v-.666c0-.168.084-.252.252-.252h2.898c.24 0 .36.126.36.378v3.024c0 .84-.234 1.494-.702 1.962-.468.468-1.116.702-1.944.702ZM60.296 14.906h-.81c-.168 0-.252-.084-.252-.252V3.584c0-.168.084-.252.252-.252h.81c.168 0 .252.084.252.252v4.734c0 .108.06.162.18.162h4.464c.12 0 .18-.054.18-.162V3.584c0-.168.084-.252.252-.252h.81c.168 0 .252.084.252.252v11.07c0 .168-.084.252-.252.252h-.81c-.168 0-.252-.084-.252-.252v-4.86c0-.108-.06-.162-.18-.162h-4.464c-.12 0-.18.054-.18.162v4.86c0 .168-.084.252-.252.252ZM72.18 14.906h-.81c-.167 0-.251-.084-.251-.252V4.646c0-.108-.06-.162-.18-.162H68.49c-.18 0-.27-.084-.27-.252v-.648c0-.168.09-.252.27-.252h6.57c.18 0 .27.084.27.252v.648c0 .168-.09.252-.27.252h-2.448c-.12 0-.18.054-.18.162v10.008c0 .168-.084.252-.252.252ZM79.916 14.906H78.53c-.168 0-.27-.084-.306-.252L75.92 3.584c-.036-.168.042-.252.234-.252h.972c.18 0 .276.084.288.252l1.818 9.918h.108l2.43-9.936c.036-.156.132-.234.288-.234h1.08c.156 0 .252.078.288.234l2.466 9.936H86l1.8-9.9c.036-.18.138-.27.306-.27h.972c.192 0 .27.09.234.27L86.99 14.654c-.036.168-.132.252-.288.252h-1.386c-.168 0-.27-.084-.306-.252l-2.358-9.666h-.072l-2.376 9.666c-.036.168-.132.252-.288.252ZM91.164 14.906h-.9c-.156 0-.21-.084-.162-.252l3.366-11.07c.048-.168.162-.252.342-.252h1.296c.18 0 .294.084.342.252l3.366 11.07c.048.168-.006.252-.162.252h-.918c-.132 0-.216-.084-.252-.252l-.846-2.628H92.28l-.846 2.628c-.048.168-.138.252-.27.252Zm3.258-10.224-1.854 6.228h3.78l-1.854-6.228h-.072ZM103.387 14.906h-.81c-.168 0-.252-.084-.252-.252V4.646c0-.108-.06-.162-.18-.162h-2.448c-.18 0-.27-.084-.27-.252v-.648c0-.168.09-.252.27-.252h6.57c.18 0 .27.084.27.252v.648c0 .168-.09.252-.27.252h-2.448c-.12 0-.18.054-.18.162v10.008c0 .168-.084.252-.252.252ZM112.706 14.906h-2.16c-.828 0-1.482-.234-1.962-.702-.468-.468-.701-1.122-.701-1.962V5.996c0-.84.233-1.494.701-1.962.48-.468 1.134-.702 1.962-.702h2.16c.828 0 1.477.234 1.945.702.48.468.72 1.122.72 1.962v.882c0 .168-.084.252-.252.252h-.81c-.168 0-.252-.084-.252-.252V6.05c0-1.044-.505-1.566-1.513-1.566h-1.854c-.996 0-1.493.522-1.493 1.566v6.138c0 1.044.497 1.566 1.493 1.566h1.854c1.008 0 1.513-.522 1.513-1.566v-.828c0-.168.084-.252.252-.252h.81c.168 0 .252.084.252.252v.882c0 .84-.24 1.494-.72 1.962-.468.468-1.117.702-1.945.702ZM118.683 14.906h-.81c-.168 0-.252-.084-.252-.252V3.584c0-.168.084-.252.252-.252h.81c.168 0 .252.084.252.252v4.734c0 .108.06.162.18.162h4.464c.12 0 .18-.054.18-.162V3.584c0-.168.084-.252.252-.252h.81c.168 0 .252.084.252.252v11.07c0 .168-.084.252-.252.252h-.81c-.168 0-.252-.084-.252-.252v-4.86c0-.108-.06-.162-.18-.162h-4.464c-.12 0-.18.054-.18.162v4.86c0 .168-.084.252-.252.252Z" fill="#fff"/></svg>
